<?xml version="1.0" encoding="utf-8"?>
<!-- Generator: Adobe Illustrator 25.1.0, SVG Export Plug-In . SVG Version: 6.00 Build 0)  -->
<svg version="1.1" id="Layer_1" xmlns="http://www.w3.org/2000/svg" xmlns:xlink="http://www.w3.org/1999/xlink" x="0px" y="0px"
	 viewBox="0 0 24 24" style="enable-background:new 0 0 24 24;" xml:space="preserve">
<style type="text/css">
	.st0{fill-rule:evenodd;clip-rule:evenodd;}
</style>
<desc>Created with Sketch.</desc>
<g>
	<path class="st0" d="M4.7,4l7.3,7.3L19.3,4c0.2-0.2,0.5-0.2,0.7,0c0.2,0.2,0.2,0.5,0,0.7L12.7,12l7.3,7.3c0.2,0.2,0.2,0.5,0,0.7
		s-0.5,0.2-0.7,0L12,12.7L4.7,20c-0.2,0.2-0.5,0.2-0.7,0c-0.2-0.2-0.2-0.5,0-0.7l7.3-7.3L4,4.7C3.8,4.5,3.8,4.2,4,4
		C4.2,3.8,4.5,3.8,4.7,4z"/>
</g>
</svg>
